# xmcd
#
# Track frame offsets: 
#        150
#        12547
#        23795
#        36471
#        49538
#        60394
#        74065
#        84338
#        95116
#        108205
#
# Disc length: 1572 seconds
#
# Revision: 0
# Processed by: cddbd v1.5.1PL2 Copyright (c) Steve Scherf et al.
# Submitted via: ExactAudioCopy v0.95a3
#
DISCID=8206220a
DTITLE=Carl Smith - Very Best Of
DYEAR=2003
DGENRE=Country
TTITLE0=Are You Teasing Me
TTITLE1=Hey Joe
TTITLE2=Let Old Mother Nature Have Her Way
TTITLE3=Let's Live A Little
TTITLE4=Back Up Buddy
TTITLE5=Mr Mom
TTITLE6=You Are The One
TTITLE7=It's A Lovely Lovely World
TTITLE8=Kisses Don't Lie
TTITLE9=Keep Water
EXTD=
EXTT0=
EXTT1=
EXTT2=
EXTT3=
EXTT4=
EXTT5=
EXTT6=
EXTT7=
EXTT8=
EXTT9=
PLAYORDER=
